<?xml version="1.0" standalone="no"?>
<!DOCTYPE svg PUBLIC "-//W3C//DTD SVG 20010904//EN"
 "http://www.w3.org/TR/2001/REC-SVG-20010904/DTD/svg10.dtd">
<svg version="1.0" xmlns="http://www.w3.org/2000/svg"
 width="512.000000pt" height="512.000000pt" viewBox="0 0 512.000000 512.000000"
 preserveAspectRatio="xMidYMid meet">
<metadata>
Created by potrace 1.14, written by Peter Selinger 2001-2017
</metadata>
<g transform="translate(0.000000,512.000000) scale(0.100000,-0.100000)"
fill="#000000" stroke="none">
<path d="M2184 4862 c-122 -67 -230 -193 -319 -372 -47 -94 -79 -180 -116
-308 -22 -77 -22 -81 -34 -152 -4 -25 -9 -54 -11 -65 -7 -39 -13 -92 -20 -170
-3 -44 -7 -81 -8 -83 -2 -1 -39 7 -82 18 -44 11 -97 22 -119 25 -22 4 -47 8
-55 10 -76 20 -360 23 -475 5 -209 -34 -385 -114 -474 -216 -36 -41 -37 -53
-12 -214 5 -36 12 -83 15 -105 4 -22 8 -51 11 -65 5 -26 -11 -47 -149 -190
-89 -92 -99 -110 -91 -162 36 -235 231 -483 536 -681 78 -51 242 -137 317
-167 17 -7 32 -16 32 -21 0 -5 -17 -37 -38 -71 -80 -131 -179 -363 -207 -484
-2 -10 -9 -39 -15 -64 -64 -262 -37 -577 57 -662 11 -10 63 -25 133 -37 63
-11 131 -23 150 -27 19 -3 42 -7 50 -8 8 -1 51 -73 95 -161 49 -95 90 -164
105 -174 35 -23 203 -21 295 3 242 64 513 254 735 516 35 41 66 76 70 78 3 1
17 -12 30 -30 60 -82 231 -253 318 -319 31 -24 59 -47 62 -50 27 -32 242 -145
336 -177 86 -29 106 -33 214 -38 144 -6 148 -3 240 183 41 83 78 155 82 158 6
7 105 28 186 40 21 3 49 7 62 10 14 3 39 8 57 11 135 26 182 390 93 726 -44
166 -128 369 -212 507 -21 34 -38 67 -38 71 0 4 15 13 33 20 75 30 238 116
317 167 300 195 505 455 536 680 7 51 -3 71 -82 153 -158 167 -164 174 -159
200 3 14 7 43 11 65 3 22 10 69 15 105 6 36 13 91 16 122 5 57 5 58 -38 101
-71 69 -142 114 -244 152 -23 9 -17 8 -115 33 -200 53 -465 48 -734 -13 -55
-13 -102 -22 -102 -21 -1 0 -5 37 -9 81 -15 191 -42 327 -95 486 -94 284 -245
500 -407 583 -55 28 -52 29 -320 -115 l-52 -28 -63 33 c-270 142 -259 138
-314 108z m211 -233 c183 -95 152 -95 340 4 66 35 128 66 137 69 31 12 135
-96 208 -217 l24 -40 -59 51 c-33 28 -65 54 -72 58 -10 6 -64 -20 -301 -144
l-32 -18 -98 52 c-53 28 -127 66 -163 85 l-66 34 -39 -27 c-98 -66 -198 -191
-270 -336 -30 -61 -89 -220 -99 -269 -27 -123 -45 -221 -45 -243 0 -27 -19
-50 -21 -26 -5 54 23 327 36 348 2 3 6 24 9 46 12 92 107 362 143 405 7 8 13
19 13 23 0 18 68 106 126 164 35 34 65 62 67 62 3 0 76 -37 162 -81z m-1030
-1014 c91 -12 320 -68 335 -82 2 -2 -29 -1 -70 4 -133 14 -387 8 -491 -12 -41
-8 -161 -44 -189 -58 -47 -22 -130 -77 -161 -106 l-31 -30 17 -118 c9 -65 18
-129 21 -143 19 -115 19 -113 -26 -161 -85 -89 -166 -175 -188 -201 -24 -26
-24 -26 -7 -84 9 -32 32 -90 51 -129 l35 -70 -44 45 c-94 98 -158 192 -195
291 l-20 55 50 55 c28 30 84 90 126 134 l75 80 -7 65 c-3 36 -8 79 -11 95 -3
17 -11 72 -18 123 l-14 93 29 24 c72 60 239 119 378 132 30 3 57 7 59 9 5 5
247 -4 296 -11z m2760 1 c113 -13 238 -51 305 -92 l25 -15 -30 6 c-60 13 -71
15 -110 21 -59 9 -242 11 -305 3 -30 -4 -80 -10 -110 -13 -75 -10 -299 -61
-341 -79 l-34 -14 2 -70 c0 -38 -3 -89 -7 -114 -5 -24 -11 -61 -14 -83 -9 -57
-52 -178 -91 -258 -68 -136 -159 -257 -282 -371 -49 -46 -67 -57 -69 -39 0 4
-4 30 -8 59 -7 49 -6 54 22 81 48 47 155 208 205 307 80 159 135 349 152 525
4 36 9 68 13 71 18 16 291 72 397 81 52 5 217 1 280 -6z m-1455 -834 c22 -8
20 -10 -22 -16 -110 -16 -233 -109 -283 -211 -54 -110 -56 -255 -4 -356 18
-37 19 -39 2 -30 -46 24 -117 122 -134 185 -54 190 59 388 248 436 43 10 156
6 193 -8z m-611 -384 c1 -18 3 -44 4 -56 2 -20 -7 -27 -58 -46 -242 -92 -494
-312 -669 -583 -55 -85 -128 -230 -157 -310 -11 -32 -24 -67 -29 -78 -11 -24
-49 -167 -55 -210 -16 -102 -22 -168 -21 -241 1 -46 -3 -84 -7 -84 -23 0 -45
23 -51 52 -4 18 -11 47 -14 63 -4 17 -7 84 -6 150 1 204 52 393 170 630 174
352 448 609 759 714 118 40 131 40 134 -1z m456 -447 c27 -2 53 -5 56 -7 3 -2
7 -45 7 -96 4 -356 100 -685 268 -919 43 -60 197 -223 267 -284 94 -81 220
-170 293 -209 63 -32 38 -33 -54 -2 -257 88 -534 322 -717 606 -121 188 -187
360 -223 575 -8 53 -8 315 0 337 6 14 13 16 30 10 13 -5 45 -10 73 -11z"/>
</g>
</svg>
