<?xml version="1.0" standalone="no"?>
<!DOCTYPE svg PUBLIC "-//W3C//DTD SVG 20010904//EN"
 "http://www.w3.org/TR/2001/REC-SVG-20010904/DTD/svg10.dtd">
<svg version="1.0" xmlns="http://www.w3.org/2000/svg"
 width="512.000000pt" height="512.000000pt" viewBox="0 0 512.000000 512.000000"
 preserveAspectRatio="xMidYMid meet">
<metadata>
Created by potrace 1.14, written by Peter Selinger 2001-2017
</metadata>
<g transform="translate(0.000000,512.000000) scale(0.100000,-0.100000)"
fill="#000000" stroke="none">
<path d="M2935 4882 c-21 -13 -115 -69 -207 -124 l-168 -99 -173 101 c-94 56
-185 111 -200 122 -40 28 -77 18 -183 -48 -219 -138 -369 -373 -411 -644 -3
-19 -8 -53 -12 -76 -4 -22 -7 -97 -7 -167 1 -70 -2 -127 -6 -127 -7 0 -71 23
-113 40 -11 5 -31 11 -45 14 -14 3 -54 12 -90 20 -269 63 -551 25 -749 -101
-66 -42 -177 -137 -192 -164 -7 -15 3 -77 41 -251 l51 -233 -54 -50 c-29 -27
-82 -75 -117 -105 -35 -30 -75 -66 -89 -79 -15 -13 -43 -37 -63 -54 -30 -25
-38 -38 -38 -65 0 -57 40 -203 77 -282 58 -122 127 -207 259 -321 93 -80 367
-212 486 -234 l38 -7 -44 -57 c-123 -160 -230 -381 -252 -517 -3 -22 -9 -57
-13 -79 -9 -50 -7 -186 3 -245 22 -131 104 -319 140 -321 11 0 32 -2 46 -4 14
-2 68 -6 120 -10 52 -4 101 -9 110 -10 8 -2 54 -6 101 -10 l86 -7 51 -117 c28
-64 70 -161 93 -216 23 -55 47 -105 53 -112 25 -26 245 -37 350 -16 39 7 80
15 91 17 30 6 113 40 180 75 137 70 305 225 417 383 l62 87 25 -42 c13 -23 27
-44 30 -47 3 -3 25 -31 49 -62 56 -73 179 -191 262 -250 165 -117 362 -181
535 -173 93 4 173 16 188 29 8 6 31 52 52 101 20 50 62 147 92 216 l55 127 86
7 c48 4 95 8 104 10 10 2 59 6 110 10 51 4 104 8 118 10 14 2 34 3 46 4 34 2
116 189 139 316 32 177 -3 388 -94 575 -55 113 -162 281 -197 311 -13 10 1 18
88 46 177 57 321 134 443 237 77 65 73 61 127 128 107 131 170 279 185 433 l4
50 -123 107 c-68 59 -149 131 -181 160 l-57 53 15 62 c8 34 17 76 20 93 3 18
14 69 25 115 11 46 22 96 25 112 2 15 9 42 14 60 9 30 6 34 -67 102 -131 121
-269 191 -446 224 -162 30 -404 5 -603 -63 -48 -17 -88 -30 -88 -30 0 0 0 57
-1 128 -1 128 -3 158 -24 269 -53 294 -243 554 -485 663 -27 12 -52 24 -55 25
-3 1 -23 -9 -45 -23z"/>
</g>
</svg>
